<svg  width="100%" height="auto" viewBox="0 0 1880 699" xmlns="http://www.w3.org/2000/svg">
<g style="">
<ellipse cx="916" cy="287.28" rx="285" ry="285" fill="rgba(51, 67, 79, 1.000000)"/>
<ellipse cx="916" cy="287.28" rx="171" ry="171" fill="rgba(136, 136, 136, 1.000000)"/>
<path d="m916 386.89l152.82 110.73-58.089-179.56 152.54-111.13-188.73-0.24207-58.55-179.41-58.55 179.41-188.73 0.24205 152.54 111.13-58.089 179.56 152.82-110.73z" fill="rgba(255, 255, 255, 1.000000)"/>
<path d="m914.72 286.92l-226.72-73.016 141.3 102.09 85.698-28.702 0.3969 0.53944 2.81e-4 -0.67246 0.039094-0.013094-0.039083-0.012587 0.099708-238.24-53.933 165.77 53.16 72.252zm0.70852 1.7514l-0.006522-0.72324-139.94 193.66 140.76-102.83-0.812-90.043 0.80539-0.264 140.45 192.27-54.301-165.65-85.349-26.883 225.38-73.875-174.32 0.45563-52.103 73.09-0.24612-0.077523 0.15254 0.20881-0.46907 0.65802z" fill="rgba(0, 0, 0, 1.000000)"/>
</g>
<g fill="rgba(255, 255, 255, 1.000000)" style="">
<path d="m115.59 652.99c0 0.30667-0.23 0.58267-0.69 0.828-0.46 0.24534-0.99666 0.368-1.61 0.368-0.24534 0-0.58266-0.045999-1.012-0.138-0.42934-0.092-0.67467-0.19933-0.736-0.322-0.85867-3.3734-2.898-7.0993-6.118-11.178s-6.2407-6.118-9.062-6.118h-1.38c-1.4107 0-2.4227 0.29133-3.036 0.874-0.61334 0.58267-0.92 1.4873-0.92 2.714v43.608c0 2.4533 0.58266 4.2627 1.748 5.428s3.5266 1.932 7.084 2.3c0.184 0 0.35267 0.26066 0.506 0.782s0.23 0.93533 0.23 1.242c0 0.368-0.076666 0.79733-0.23 1.288s-0.322 0.736-0.506 0.736c-2.944 0-5.9647-0.076666-9.062-0.23-3.0973-0.15333-6.026-0.23-8.786-0.23-2.8213 0-5.7653 0.076666-8.832 0.23s-6.1027 0.23-9.108 0.23c-0.184 0-0.35267-0.24533-0.506-0.736s-0.23-0.92-0.23-1.288c0-0.30667 0.076666-0.70533 0.23-1.196s0.322-0.76667 0.506-0.828c3.6187-0.42934 5.9953-1.196 7.13-2.3 1.1347-1.104 1.702-2.9133 1.702-5.428v-43.608c0-1.3493-0.276-2.2847-0.828-2.806-0.552-0.52134-1.5947-0.782-3.128-0.782h-0.736c-2.5147 0-5.612 1.886-9.292 5.658-3.68 3.772-6.2867 7.6513-7.82 11.638-0.061334 0.184-0.29133 0.30667-0.69 0.368-0.39867 0.061334-0.72067 0.092-0.966 0.092-0.552 0-1.0887-0.12266-1.61-0.368-0.52134-0.24533-0.782-0.52133-0.782-0.828 0.61334-3.0667 1.2727-6.8233 1.978-11.27s1.2113-8.142 1.518-11.086c2.1467 0.368 5.4893 0.67467 10.028 0.92 4.5387 0.24534 11.684 0.368 21.436 0.368 8.3414 0 15.287-0.12266 20.838-0.368 5.5507-0.24533 9.2153-0.552 10.994-0.92 0.184 2.944 0.42933 6.44 0.736 10.488 0.30667 4.048 0.644 8.004 1.012 11.868zm107.7 20.884c-0.42934 3.4347-0.84333 7.0686-1.242 10.902-0.39867 3.8334-0.69 7.3753-0.874 10.626-3.864-0.12267-8.7093-0.23-14.536-0.322-5.8267-0.092-10.519-0.138-14.076-0.138s-8.6173 0.061333-15.18 0.184c-6.5627 0.12267-11.469 0.21467-14.72 0.276-0.184 0-0.35267-0.24533-0.506-0.736s-0.23-0.92-0.23-1.288c0-0.30667 0.076666-0.70533 0.23-1.196s0.322-0.76667 0.506-0.828c3.6187-0.42934 5.9953-1.196 7.13-2.3 1.1347-1.104 1.702-2.9133 1.702-5.428v-40.388c0-2.5147-0.56733-4.324-1.702-5.428-1.1347-1.104-3.5113-1.8707-7.13-2.3-0.184-0.061333-0.35267-0.33733-0.506-0.828s-0.23-0.88933-0.23-1.196c0-0.368 0.076666-0.79733 0.23-1.288s0.322-0.736 0.506-0.736c3.2507 0.061334 7.912 0.15333 13.984 0.276 6.072 0.12267 11.071 0.184 14.996 0.184 3.312 0 8.004-0.045999 14.076-0.138 6.072-0.092 10.979-0.19933 14.72-0.322-0.12267 2.5147-0.076668 5.7653 0.138 9.752 0.21467 3.9867 0.38333 7.5747 0.506 10.764 0 0.24534-0.23 0.506-0.69 0.782-0.46 0.276-1.0887 0.414-1.886 0.414-0.42934 0-0.79733-0.061333-1.104-0.184-0.30667-0.12267-0.46-0.24533-0.46-0.368-0.49067-3.864-2.1007-7.5286-4.83-10.994s-6.578-5.198-11.546-5.198h-5.52c-1.2267 0-2.4227 0.30666-3.588 0.92-1.1653 0.61334-1.748 2.116-1.748 4.508v19.044h3.128c3.0667 0 5.5353-0.91999 7.406-2.76s2.9593-4.2627 3.266-7.268c0-0.184 0.26066-0.35267 0.782-0.506s0.93533-0.23 1.242-0.23c0.42934 0 0.874 0.076666 1.334 0.23 0.46 0.15333 0.69 0.322 0.69 0.506 0 2.2693-0.076666 4.3853-0.23 6.348-0.15333 1.9627-0.23 3.9867-0.23 6.072 0 2.1467 0.076666 4.1553 0.23 6.026s0.23 3.91 0.23 6.118c0 0.184-0.23 0.35267-0.69 0.506-0.46 0.15333-0.90466 0.23-1.334 0.23-0.30667 0-0.70533-0.076666-1.196-0.23s-0.76667-0.322-0.828-0.506c-0.368-3.1893-1.3953-5.658-3.082-7.406s-4.2166-2.622-7.59-2.622h-3.128v19.596c0 2.208 0.58266 3.6647 1.748 4.37s2.3613 1.058 3.588 1.058h4.784c4.6614 0 8.8013-1.6866 12.42-5.06 3.6187-3.3734 5.888-7.5133 6.808-12.42 0-0.12267 0.138-0.21467 0.414-0.276 0.276-0.061333 0.598-0.092 0.966-0.092 0.67467 0 1.334 0.12267 1.978 0.368 0.644 0.24534 0.93533 0.552 0.874 0.92zm122.97 19.504c0 0.368-0.076666 0.79733-0.23 1.288s-0.322 0.736-0.506 0.736c-2.1467 0-5.014-0.076666-8.602-0.23s-6.5473-0.23-8.878-0.23c-2.8213 0-6.072 0.076666-9.752 0.23-3.68 0.15333-7.0227 0.23-10.028 0.23-0.184 0-0.35267-0.23-0.506-0.69s-0.23-0.90466-0.23-1.334c0-0.30667 0.076666-0.70533 0.23-1.196s0.322-0.76667 0.506-0.828c2.2693-0.30667 3.91-0.62866 4.922-0.966s1.518-1.0273 1.518-2.07c0-0.49067-0.184-1.104-0.552-1.84s-0.95066-1.6867-1.748-2.852l-9.292-13.524-11.04 13.524c-0.552 0.61334-0.99666 1.288-1.334 2.024s-0.506 1.3493-0.506 1.84c0 1.104 0.52133 1.9627 1.564 2.576 1.0427 0.61334 2.668 1.0427 4.876 1.288 0.184 0 0.322 0.26066 0.414 0.782 0.092 0.52134 0.138 0.93533 0.138 1.242 0 0.368-0.076666 0.79733-0.23 1.288s-0.322 0.736-0.506 0.736c-2.944 0-5.2747-0.076666-6.992-0.23s-3.8027-0.23-6.256-0.23c-1.9627 0-3.7413 0.076666-5.336 0.23-1.5947 0.15333-3.5573 0.23-5.888 0.23-0.184 0-0.35267-0.23-0.506-0.69s-0.23-0.90466-0.23-1.334c0-0.30667 0.12266-0.70533 0.368-1.196 0.24533-0.49067 0.46-0.76667 0.644-0.828 2.76-0.30667 5.1827-1.1347 7.268-2.484 2.0853-1.3493 4.2013-3.312 6.348-5.888l14.536-16.744-14.996-21.896c-1.9627-2.8213-3.7873-4.9067-5.474-6.256s-4.278-2.208-7.774-2.576c-0.184-0.061333-0.35267-0.33733-0.506-0.828s-0.23-0.88933-0.23-1.196c0-0.368 0.076666-0.79733 0.23-1.288s0.322-0.736 0.506-0.736c2.1467 0 4.9526 0.076666 8.418 0.23 3.4654 0.15333 6.3633 0.23 8.694 0.23 2.8213 0 6.1333-0.076666 9.936-0.23 3.8027-0.15333 7.2067-0.23 10.212-0.23 0.184 0 0.35267 0.24533 0.506 0.736s0.23 0.92 0.23 1.288c0 0.30667-0.076666 0.72066-0.23 1.242s-0.322 0.782-0.506 0.782c-2.208 0.24534-3.7873 0.62866-4.738 1.15-0.95067 0.52134-1.426 1.1807-1.426 1.978 0 0.736 0.23 1.5487 0.69 2.438 0.46 0.88934 0.90466 1.61 1.334 2.162l8.556 12.42 10.396-12.42c0.42934-0.552 0.81266-1.1347 1.15-1.748 0.33734-0.61334 0.506-1.2267 0.506-1.84 0-0.98134-0.44466-1.8093-1.334-2.484-0.88934-0.67467-3.0513-1.2267-6.486-1.656-0.184-0.061333-0.322-0.33733-0.414-0.828-0.092001-0.49067-0.138-0.88933-0.138-1.196 0-0.368 0.076666-0.79733 0.23-1.288s0.322-0.736 0.506-0.736c3.0053 0 5.474 0.076666 7.406 0.23 1.932 0.15333 4.3087 0.23 7.13 0.23 2.3307 0 4.0327-0.076666 5.106-0.23 1.0733-0.15333 3.082-0.23 6.026-0.23 0.184 0 0.35267 0.24533 0.506 0.736s0.23 0.92 0.23 1.288c0 0.30667-0.12267 0.72066-0.368 1.242-0.24534 0.52134-0.46 0.782-0.644 0.782-2.4533 0.184-4.6307 0.88933-6.532 2.116s-4.2933 3.4347-7.176 6.624l-13.34 15.364 16.468 24.012c1.9013 2.6373 3.6493 4.508 5.244 5.612 1.5947 1.104 3.9866 1.8093 7.176 2.116 0.184 0 0.35267 0.26066 0.506 0.782s0.23 0.93533 0.23 1.242zm114.05 0c0 0.368-0.076666 0.79733-0.23 1.288s-0.322 0.736-0.506 0.736c-2.944 0-5.9187-0.076666-8.924-0.23-3.0053-0.15333-5.7653-0.23-8.28-0.23-2.8213 0-5.842 0.076666-9.062 0.23s-6.3327 0.23-9.338 0.23c-0.184 0-0.35267-0.23-0.506-0.69s-0.23-0.90466-0.23-1.334c0-0.30667 0.045999-0.70533 0.138-1.196 0.092-0.49067 0.23-0.76667 0.414-0.828 2.944-0.184 4.8913-0.56733 5.842-1.15 0.95067-0.58267 1.426-1.4873 1.426-2.714 0-0.49067-0.10733-1.104-0.322-1.84-0.21467-0.736-0.44467-1.4107-0.69-2.024l-2.484-6.44h-19.32l-2.208 5.336c-0.368 0.85867-0.65933 1.6713-0.874 2.438-0.21467 0.76667-0.322 1.426-0.322 1.978 0 1.288 0.35266 2.3153 1.058 3.082 0.70534 0.76667 2.6526 1.2113 5.842 1.334 0.184 0 0.30667 0.26066 0.368 0.782 0.061333 0.52134 0.092 0.93533 0.092 1.242 0 0.42934-0.076666 0.874-0.23 1.334s-0.322 0.69-0.506 0.69c-2.6373 0-4.692-0.076666-6.164-0.23-1.472-0.15333-3.4347-0.23-5.888-0.23-2.024 0-3.8027 0.076666-5.336 0.23s-3.3427 0.23-5.428 0.23c-0.184 0-0.33733-0.26066-0.46-0.782-0.12267-0.52134-0.184-0.93533-0.184-1.242s0.138-0.70533 0.414-1.196c0.276-0.49067 0.506-0.76667 0.69-0.828 2.6373-0.24533 4.692-1.0427 6.164-2.392 1.472-1.3493 2.9747-3.6187 4.508-6.808l22.816-51.428c0.061333-0.184 0.39866-0.35267 1.012-0.506 0.61334-0.15333 1.196-0.23 1.748-0.23 0.552 0 1.1347 0.076666 1.748 0.23 0.61334 0.15333 0.95067 0.322 1.012 0.506l20.424 51.428c1.104 3.0667 2.4227 5.29 3.956 6.67s3.8333 2.2233 6.9 2.53c0.184 0 0.38333 0.26066 0.598 0.782 0.21467 0.52134 0.322 0.93533 0.322 1.242zm-34.5-20.608l-7.728-20.24-8.096 20.24zm117.08-15.732c3.6187 2.1467 7.0226 4.7073 10.212 7.682 3.1893 2.9747 4.784 6.7313 4.784 11.27 0 6.5014-2.346 11.607-7.038 15.318-4.692 3.7107-10.595 5.566-17.71 5.566-4.3547 0-8.0807-0.59799-11.178-1.794-3.0973-1.196-6.6393-2.162-10.626-2.898-0.061334-2.208-0.092-5.152-0.092-8.832 0-3.68-0.091999-6.9307-0.276-9.752 0-0.184 0.26066-0.35267 0.782-0.506s0.966-0.23 1.334-0.23c0.42934 0 0.84333 0.061333 1.242 0.184 0.39867 0.12267 0.62867 0.30667 0.69 0.552 1.1653 5.4587 3.6033 9.9666 7.314 13.524 3.7107 3.5574 7.314 5.336 10.81 5.336 3.5574 0 6.118-0.78199 7.682-2.346 1.564-1.564 2.346-3.6953 2.346-6.394 0-3.312-1.5947-6.1027-4.784-8.372-3.1894-2.2693-6.624-4.4773-10.304-6.624-3.7414-2.1467-7.2067-4.692-10.396-7.636-3.1894-2.944-4.784-6.5626-4.784-10.856 0-5.704 2.162-10.503 6.486-14.398 4.324-3.8947 10.258-5.842 17.802-5.842 3.3734 0 6.2867 0.414 8.74 1.242 2.4533 0.828 5.0907 1.518 7.912 2.07 0.061333 2.208 0.16867 4.968 0.322 8.28 0.15333 3.312 0.35266 6.0413 0.598 8.188 0 0.184-0.26066 0.35267-0.782 0.506s-0.93533 0.23-1.242 0.23c-0.42934 0-0.85866-0.061333-1.288-0.184-0.42934-0.12267-0.70533-0.30666-0.828-0.552-1.1653-4.784-2.8827-8.5407-5.152-11.27-2.2693-2.7293-5.06-4.094-8.372-4.094-2.8827 0-5.152 0.76666-6.808 2.3-1.656 1.5333-2.484 3.4653-2.484 5.796 0 3.0667 1.5487 5.6887 4.646 7.866 3.0973 2.1773 6.578 4.4007 10.442 6.67z"/>
<path d="m764.98 677.65c0 4.9067-1.8706 9.0926-5.612 12.558s-10.549 5.198-20.424 5.198c-3.0053 0-6.302-0.076666-9.89-0.23s-6.7927-0.23-9.614-0.23-5.9186 0.076666-9.292 0.23-6.5627 0.23-9.568 0.23c-0.184 0-0.35267-0.24533-0.506-0.736s-0.23-0.92-0.23-1.288c0-0.30667 0.076666-0.70533 0.23-1.196s0.322-0.76667 0.506-0.828c3.6187-0.42934 5.9953-1.196 7.13-2.3 1.1347-1.104 1.702-2.9133 1.702-5.428v-40.388c0-2.5147-0.56733-4.324-1.702-5.428-1.1347-1.104-3.5113-1.8707-7.13-2.3-0.184-0.061333-0.35267-0.33733-0.506-0.828s-0.23-0.88933-0.23-1.196c0-0.368 0.076666-0.79733 0.23-1.288s0.322-0.736 0.506-0.736c3.0053 0 6.1027 0.076666 9.292 0.23s6.1947 0.23 9.016 0.23 5.8113-0.076666 8.97-0.23 6.2407-0.23 9.246-0.23c8.5254 0 14.72 1.334 18.584 4.002s5.796 6.118 5.796 10.35c0 3.496-1.5333 6.5933-4.6 9.292s-7.544 4.4773-13.432 5.336c6.992 0.30667 12.328 2.2233 16.008 5.75s5.52 7.3446 5.52 11.454zm-22.54-30.636c0-3.9254-0.73599-6.7467-2.208-8.464s-3.864-2.576-7.176-2.576h-1.104c-1.288 0-2.3307 0.276-3.128 0.828s-1.196 1.6867-1.196 3.404v18.584h4.876c3.5574 0 6.1027-0.93532 7.636-2.806s2.3-4.8606 2.3-8.97zm3.588 29.716c0-4.416-0.96599-7.774-2.898-10.074-1.932-2.3-4.7993-3.45-8.602-3.45h-6.9v21.896c0 2.024 0.55199 3.496 1.656 4.416 1.104 0.92 2.6067 1.38 4.508 1.38 2.944 0 5.7193-1.1193 8.326-3.358s3.91-5.842 3.91-10.81zm133.94-5.06c-0.42934 3.4347-0.84333 7.636-1.242 12.604s-0.65933 8.6787-0.782 11.132c-3.864-0.12267-8.6786-0.23-14.444-0.322-5.7654-0.092-10.457-0.138-14.076-0.138-3.9254 0-8.9853 0.061333-15.18 0.184s-10.825 0.21467-13.892 0.276c-0.184 0-0.35267-0.23-0.506-0.69s-0.23-0.90466-0.23-1.334c0-0.30667 0.076666-0.70533 0.23-1.196s0.322-0.76667 0.506-0.828c3.5574-0.42934 5.9033-1.196 7.038-2.3 1.1347-1.104 1.702-2.9133 1.702-5.428v-40.388c0-2.5147-0.56733-4.324-1.702-5.428-1.1347-1.104-3.4806-1.8707-7.038-2.3-0.184-0.061333-0.35267-0.33733-0.506-0.828s-0.23-0.88933-0.23-1.196c0-0.42934 0.076666-0.874 0.23-1.334s0.322-0.69 0.506-0.69c2.944 0 5.9647 0.076666 9.062 0.23s6.026 0.23 8.786 0.23c2.8213 0 5.7653-0.076666 8.832-0.23s6.1027-0.23 9.108-0.23c0.184 0 0.35267 0.24533 0.506 0.736s0.23 0.92 0.23 1.288c0 0.30667-0.076666 0.72066-0.23 1.242s-0.322 0.782-0.506 0.782c-3.5574 0.368-5.9187 1.1347-7.084 2.3s-1.748 2.9747-1.748 5.428v41.768c0 2.208 0.59799 3.6647 1.794 4.37s2.4073 1.058 3.634 1.058h5.244c4.2934 0 8.1113-2.024 11.454-6.072s5.474-8.5866 6.394-13.616c0-0.12267 0.10733-0.21467 0.322-0.276 0.21467-0.061333 0.53666-0.092 0.966-0.092 0.67467 0 1.334 0.12267 1.978 0.368 0.644 0.24534 0.93533 0.552 0.874 0.92zm124.46-38.18c0 0.30667-0.076666 0.72066-0.23 1.242s-0.322 0.782-0.506 0.782c-3.5574 0.368-5.9493 1.104-7.176 2.208-1.2267 1.104-1.84 2.944-1.84 5.52v28.98c0 6.6854-2.0546 12.466-6.164 17.342-4.1094 4.876-10.365 7.314-18.768 7.314-10.181 0-17.925-2.254-23.23-6.762-5.3054-4.508-7.958-11.454-7.958-20.838v-26.036c0-2.5147-0.56733-4.324-1.702-5.428-1.1347-1.104-3.5113-1.8707-7.13-2.3-0.184-0.061333-0.35267-0.33733-0.506-0.828s-0.23-0.88933-0.23-1.196c0-0.368 0.076666-0.79733 0.23-1.288s0.322-0.736 0.506-0.736c3.0053 0 6.0413 0.076666 9.108 0.23s6.0107 0.23 8.832 0.23c2.76 0 5.6887-0.076666 8.786-0.23s6.118-0.23 9.062-0.23c0.184 0 0.35267 0.24533 0.506 0.736s0.23 0.92 0.23 1.288c0 0.30667-0.076666 0.72066-0.23 1.242s-0.322 0.782-0.506 0.782c-3.5574 0.368-5.9187 1.1347-7.084 2.3s-1.748 2.9747-1.748 5.428v29.164c0 6.256 1.1653 10.856 3.496 13.8s6.5013 4.416 12.512 4.416c5.4587 0 9.4913-1.7173 12.098-5.152s3.91-8.1573 3.91-14.168v-28.06c0-2.5147-0.59799-4.324-1.794-5.428-1.196-1.104-3.5726-1.8707-7.13-2.3-0.184-0.061333-0.35267-0.33733-0.506-0.828s-0.23-0.88933-0.23-1.196c0-0.42934 0.076666-0.874 0.23-1.334s0.322-0.69 0.506-0.69c2.024 0 3.9867 0.076666 5.888 0.23s3.9253 0.23 6.072 0.23 4.1247-0.076666 5.934-0.23 3.818-0.23 6.026-0.23c0.184 0 0.35267 0.24533 0.506 0.736s0.23 0.92 0.23 1.288zm112.41 40.388c-0.42934 3.4347-0.84333 7.0686-1.242 10.902-0.39867 3.8334-0.69 7.3753-0.874 10.626-3.864-0.12267-8.7093-0.23-14.536-0.322-5.8267-0.092-10.519-0.138-14.076-0.138s-8.6173 0.061333-15.18 0.184-11.469 0.21467-14.72 0.276c-0.184 0-0.35267-0.24533-0.506-0.736s-0.23-0.92-0.23-1.288c0-0.30667 0.076666-0.70533 0.23-1.196s0.322-0.76667 0.506-0.828c3.6187-0.42934 5.9953-1.196 7.13-2.3 1.1347-1.104 1.702-2.9133 1.702-5.428v-40.388c0-2.5147-0.56733-4.324-1.702-5.428-1.1347-1.104-3.5113-1.8707-7.13-2.3-0.184-0.061333-0.35267-0.33733-0.506-0.828s-0.23-0.88933-0.23-1.196c0-0.368 0.076666-0.79733 0.23-1.288s0.322-0.736 0.506-0.736c3.2507 0.061334 7.912 0.15333 13.984 0.276s11.071 0.184 14.996 0.184c3.312 0 8.004-0.045999 14.076-0.138 6.072-0.092 10.979-0.19933 14.72-0.322-0.12267 2.5147-0.076668 5.7653 0.138 9.752 0.21467 3.9867 0.38333 7.5747 0.506 10.764 0 0.24534-0.23 0.506-0.69 0.782-0.46 0.276-1.0887 0.414-1.886 0.414-0.42934 0-0.79733-0.061333-1.104-0.184s-0.46-0.24533-0.46-0.368c-0.49067-3.864-2.1007-7.5286-4.83-10.994s-6.578-5.198-11.546-5.198h-5.52c-1.2267 0-2.4227 0.30666-3.588 0.92-1.1653 0.61334-1.748 2.116-1.748 4.508v19.044h3.128c3.0667 0 5.5353-0.91999 7.406-2.76s2.9593-4.2627 3.266-7.268c0-0.184 0.26066-0.35267 0.782-0.506s0.93533-0.23 1.242-0.23c0.42934 0 0.874 0.076666 1.334 0.23s0.69 0.322 0.69 0.506c0 2.2693-0.076666 4.3853-0.23 6.348-0.15333 1.9627-0.23 3.9867-0.23 6.072 0 2.1467 0.076666 4.1553 0.23 6.026s0.23 3.91 0.23 6.118c0 0.184-0.23 0.35267-0.69 0.506s-0.90466 0.23-1.334 0.23c-0.30667 0-0.70533-0.076666-1.196-0.23s-0.76667-0.322-0.828-0.506c-0.368-3.1893-1.3953-5.658-3.082-7.406s-4.2166-2.622-7.59-2.622h-3.128v19.596c0 2.208 0.58266 3.6647 1.748 4.37s2.3613 1.058 3.588 1.058h4.784c4.6614 0 8.8013-1.6866 12.42-5.06s5.888-7.5133 6.808-12.42c0-0.12267 0.138-0.21467 0.414-0.276 0.276-0.061333 0.598-0.092 0.966-0.092 0.67467 0 1.334 0.12267 1.978 0.368 0.644 0.24534 0.93533 0.552 0.874 0.92zm95.392-16.836c3.6187 2.1467 7.0227 4.7073 10.212 7.682 3.1893 2.9747 4.784 6.7313 4.784 11.27 0 6.5014-2.346 11.607-7.038 15.318s-10.595 5.566-17.71 5.566c-4.3547 0-8.0807-0.59799-11.178-1.794s-6.6393-2.162-10.626-2.898c-0.061334-2.208-0.092-5.152-0.092-8.832 0-3.68-0.091999-6.9307-0.276-9.752 0-0.184 0.26066-0.35267 0.782-0.506s0.966-0.23 1.334-0.23c0.42934 0 0.84333 0.061333 1.242 0.184s0.62867 0.30667 0.69 0.552c1.1653 5.4587 3.6033 9.9666 7.314 13.524s7.314 5.336 10.81 5.336c3.5574 0 6.118-0.78199 7.682-2.346s2.346-3.6953 2.346-6.394c0-3.312-1.5947-6.1027-4.784-8.372s-6.624-4.4773-10.304-6.624c-3.7414-2.1467-7.2067-4.692-10.396-7.636s-4.784-6.5626-4.784-10.856c0-5.704 2.162-10.503 6.486-14.398s10.258-5.842 17.802-5.842c3.3734 0 6.2867 0.414 8.74 1.242s5.0907 1.518 7.912 2.07c0.061334 2.208 0.16867 4.968 0.322 8.28 0.15333 3.312 0.35266 6.0413 0.598 8.188 0 0.184-0.26066 0.35267-0.782 0.506s-0.93533 0.23-1.242 0.23c-0.42934 0-0.85866-0.061333-1.288-0.184s-0.70533-0.30666-0.828-0.552c-1.1653-4.784-2.8827-8.5407-5.152-11.27s-5.06-4.094-8.372-4.094c-2.8827 0-5.152 0.76666-6.808 2.3s-2.484 3.4653-2.484 5.796c0 3.0667 1.5487 5.6887 4.646 7.866s6.578 4.4007 10.442 6.67z"/>
<path d="m1416.8 693.38c0 0.368-0.076666 0.79733-0.23 1.288s-0.322 0.736-0.506 0.736c-2.944 0-5.9187-0.076666-8.924-0.23s-5.7653-0.23-8.28-0.23c-2.8213 0-5.842 0.076666-9.062 0.23s-6.3327 0.23-9.338 0.23c-0.184 0-0.35267-0.23-0.506-0.69s-0.23-0.90466-0.23-1.334c0-0.30667 0.046-0.70533 0.138-1.196s0.23-0.76667 0.414-0.828c2.944-0.184 4.8913-0.56733 5.842-1.15 0.95067-0.58267 1.426-1.4873 1.426-2.714 0-0.49067-0.10733-1.104-0.322-1.84s-0.44466-1.4107-0.69-2.024l-2.484-6.44h-19.32l-2.208 5.336c-0.368 0.85867-0.65933 1.6713-0.874 2.438-0.21467 0.76667-0.322 1.426-0.322 1.978 0 1.288 0.35266 2.3153 1.058 3.082 0.70534 0.76667 2.6527 1.2113 5.842 1.334 0.184 0 0.30667 0.26066 0.368 0.782s0.092 0.93533 0.092 1.242c0 0.42934-0.076666 0.874-0.23 1.334s-0.322 0.69-0.506 0.69c-2.6373 0-4.692-0.076666-6.164-0.23s-3.4347-0.23-5.888-0.23c-2.024 0-3.8027 0.076666-5.336 0.23s-3.3427 0.23-5.428 0.23c-0.184 0-0.33733-0.26066-0.46-0.782s-0.184-0.93533-0.184-1.242 0.138-0.70533 0.414-1.196 0.506-0.76667 0.69-0.828c2.6373-0.24533 4.692-1.0427 6.164-2.392s2.9747-3.6187 4.508-6.808l22.816-51.428c0.061334-0.184 0.39866-0.35267 1.012-0.506s1.196-0.23 1.748-0.23 1.1347 0.076666 1.748 0.23 0.95067 0.322 1.012 0.506l20.424 51.428c1.104 3.0667 2.4227 5.29 3.956 6.67s3.8333 2.2233 6.9 2.53c0.184 0 0.38333 0.26066 0.598 0.782s0.322 0.93533 0.322 1.242zm-34.5-20.608l-7.728-20.24-8.096 20.24zm144.45-1.104c-0.42934 3.4347-0.84333 7.636-1.242 12.604s-0.65933 8.6787-0.782 11.132c-3.864-0.12267-8.6786-0.23-14.444-0.322-5.7654-0.092-10.457-0.138-14.076-0.138-3.9254 0-8.9853 0.061333-15.18 0.184s-10.825 0.21467-13.892 0.276c-0.184 0-0.35267-0.23-0.506-0.69s-0.23-0.90466-0.23-1.334c0-0.30667 0.076666-0.70533 0.23-1.196s0.322-0.76667 0.506-0.828c3.5574-0.42934 5.9033-1.196 7.038-2.3 1.1347-1.104 1.702-2.9133 1.702-5.428v-40.388c0-2.5147-0.56733-4.324-1.702-5.428-1.1347-1.104-3.4806-1.8707-7.038-2.3-0.184-0.061333-0.35267-0.33733-0.506-0.828s-0.23-0.88933-0.23-1.196c0-0.42934 0.076666-0.874 0.23-1.334s0.322-0.69 0.506-0.69c2.944 0 5.9647 0.076666 9.062 0.23s6.026 0.23 8.786 0.23c2.8213 0 5.7653-0.076666 8.832-0.23s6.1027-0.23 9.108-0.23c0.184 0 0.35267 0.24533 0.506 0.736s0.23 0.92 0.23 1.288c0 0.30667-0.076666 0.72066-0.23 1.242s-0.322 0.782-0.506 0.782c-3.5574 0.368-5.9187 1.1347-7.084 2.3s-1.748 2.9747-1.748 5.428v41.768c0 2.208 0.59799 3.6647 1.794 4.37s2.4073 1.058 3.634 1.058h5.244c4.2934 0 8.1113-2.024 11.454-6.072s5.474-8.5866 6.394-13.616c0-0.12267 0.10733-0.21467 0.322-0.276 0.21467-0.061333 0.53666-0.092 0.966-0.092 0.67467 0 1.334 0.12267 1.978 0.368 0.644 0.24534 0.93533 0.552 0.874 0.92zm111.79 0c-0.42934 3.4347-0.84333 7.636-1.242 12.604s-0.65933 8.6787-0.782 11.132c-3.864-0.12267-8.6786-0.23-14.444-0.322-5.7654-0.092-10.457-0.138-14.076-0.138-3.9254 0-8.9853 0.061333-15.18 0.184s-10.825 0.21467-13.892 0.276c-0.184 0-0.35267-0.23-0.506-0.69s-0.23-0.90466-0.23-1.334c0-0.30667 0.076666-0.70533 0.23-1.196s0.322-0.76667 0.506-0.828c3.5574-0.42934 5.9033-1.196 7.038-2.3 1.1347-1.104 1.702-2.9133 1.702-5.428v-40.388c0-2.5147-0.56733-4.324-1.702-5.428-1.1347-1.104-3.4806-1.8707-7.038-2.3-0.184-0.061333-0.35267-0.33733-0.506-0.828s-0.23-0.88933-0.23-1.196c0-0.42934 0.076666-0.874 0.23-1.334s0.322-0.69 0.506-0.69c2.944 0 5.9647 0.076666 9.062 0.23s6.026 0.23 8.786 0.23c2.8213 0 5.7653-0.076666 8.832-0.23s6.1027-0.23 9.108-0.23c0.184 0 0.35267 0.24533 0.506 0.736s0.23 0.92 0.23 1.288c0 0.30667-0.076666 0.72066-0.23 1.242s-0.322 0.782-0.506 0.782c-3.5574 0.368-5.9187 1.1347-7.084 2.3s-1.748 2.9747-1.748 5.428v41.768c0 2.208 0.59799 3.6647 1.794 4.37s2.4073 1.058 3.634 1.058h5.244c4.2934 0 8.1113-2.024 11.454-6.072s5.474-8.5866 6.394-13.616c0-0.12267 0.10733-0.21467 0.322-0.276 0.21467-0.061333 0.53666-0.092 0.966-0.092 0.67467 0 1.334 0.12267 1.978 0.368 0.644 0.24534 0.93533 0.552 0.874 0.92zm112.71 2.208c-0.42934 3.4347-0.84333 7.0686-1.242 10.902-0.39867 3.8334-0.69 7.3753-0.874 10.626-3.864-0.12267-8.7093-0.23-14.536-0.322-5.8267-0.092-10.519-0.138-14.076-0.138s-8.6173 0.061333-15.18 0.184-11.469 0.21467-14.72 0.276c-0.184 0-0.35267-0.24533-0.506-0.736s-0.23-0.92-0.23-1.288c0-0.30667 0.076666-0.70533 0.23-1.196s0.322-0.76667 0.506-0.828c3.6187-0.42934 5.9953-1.196 7.13-2.3 1.1347-1.104 1.702-2.9133 1.702-5.428v-40.388c0-2.5147-0.56733-4.324-1.702-5.428-1.1347-1.104-3.5113-1.8707-7.13-2.3-0.184-0.061333-0.35267-0.33733-0.506-0.828s-0.23-0.88933-0.23-1.196c0-0.368 0.076666-0.79733 0.23-1.288s0.322-0.736 0.506-0.736c3.2507 0.061334 7.912 0.15333 13.984 0.276s11.071 0.184 14.996 0.184c3.312 0 8.004-0.045999 14.076-0.138 6.072-0.092 10.979-0.19933 14.72-0.322-0.12267 2.5147-0.076668 5.7653 0.138 9.752 0.21467 3.9867 0.38333 7.5747 0.506 10.764 0 0.24534-0.23 0.506-0.69 0.782-0.46 0.276-1.0887 0.414-1.886 0.414-0.42934 0-0.79733-0.061333-1.104-0.184s-0.46-0.24533-0.46-0.368c-0.49067-3.864-2.1007-7.5286-4.83-10.994s-6.578-5.198-11.546-5.198h-5.52c-1.2267 0-2.4227 0.30666-3.588 0.92-1.1653 0.61334-1.748 2.116-1.748 4.508v19.044h3.128c3.0667 0 5.5353-0.91999 7.406-2.76s2.9593-4.2627 3.266-7.268c0-0.184 0.26066-0.35267 0.782-0.506s0.93533-0.23 1.242-0.23c0.42934 0 0.874 0.076666 1.334 0.23s0.69 0.322 0.69 0.506c0 2.2693-0.076666 4.3853-0.23 6.348-0.15333 1.9627-0.23 3.9867-0.23 6.072 0 2.1467 0.076666 4.1553 0.23 6.026s0.23 3.91 0.23 6.118c0 0.184-0.23 0.35267-0.69 0.506s-0.90466 0.23-1.334 0.23c-0.30667 0-0.70533-0.076666-1.196-0.23s-0.76667-0.322-0.828-0.506c-0.368-3.1893-1.3953-5.658-3.082-7.406s-4.2166-2.622-7.59-2.622h-3.128v19.596c0 2.208 0.58266 3.6647 1.748 4.37s2.3613 1.058 3.588 1.058h4.784c4.6614 0 8.8013-1.6866 12.42-5.06s5.888-7.5133 6.808-12.42c0-0.12267 0.138-0.21467 0.414-0.276 0.276-0.061333 0.598-0.092 0.966-0.092 0.67467 0 1.334 0.12267 1.978 0.368 0.644 0.24534 0.93533 0.552 0.874 0.92zm124.86-40.388c0 0.30667-0.12266 0.72066-0.368 1.242s-0.46 0.782-0.644 0.782c-2.5147 0.24534-4.6767 0.95066-6.486 2.116s-3.634 3.036-5.474 5.612l-16.192 23.46v16.928c0 2.4533 0.46 4.2627 1.38 5.428s3.1586 1.932 6.716 2.3c0.184 0 0.35267 0.26066 0.506 0.782s0.23 0.93533 0.23 1.242c0 0.368-0.076666 0.79733-0.23 1.288s-0.322 0.736-0.506 0.736c-3.0053 0-5.9187-0.076666-8.74-0.23s-5.6427-0.23-8.464-0.23-5.75 0.076666-8.786 0.23-6.0567 0.23-9.062 0.23c-0.184 0-0.35267-0.23-0.506-0.69s-0.23-0.90466-0.23-1.334c0-0.30667 0.076666-0.70533 0.23-1.196s0.322-0.76667 0.506-0.828c3.5574-0.42934 5.9033-1.196 7.038-2.3 1.1347-1.104 1.702-2.9133 1.702-5.428v-16.836l-14.904-23.552c-1.656-2.576-3.3273-4.416-5.014-5.52-1.6867-1.104-4.2166-1.84-7.59-2.208-0.184-0.061333-0.35267-0.33733-0.506-0.828s-0.23-0.88933-0.23-1.196c0-0.368 0.076666-0.79733 0.23-1.288s0.322-0.736 0.506-0.736c2.1467 0 4.7687 0.076666 7.866 0.23s5.842 0.23 8.234 0.23c2.4533 0 5.6273-0.076666 9.522-0.23s7.3447-0.23 10.35-0.23c0.184 0 0.35267 0.23 0.506 0.69s0.23 0.90466 0.23 1.334c0 0.30667-0.076666 0.72066-0.23 1.242s-0.322 0.782-0.506 0.782c-2.208 0.24534-3.772 0.65933-4.692 1.242-0.92 0.58267-1.38 1.2727-1.38 2.07 0 0.61334 0.184 1.288 0.552 2.024s0.828 1.5333 1.38 2.392l11.684 18.124 12.144-18.124c0.49067-0.736 0.88933-1.426 1.196-2.07s0.46-1.2727 0.46-1.886c0-0.92-0.42933-1.702-1.288-2.346s-2.576-1.1193-5.152-1.426c-0.184-0.061333-0.30667-0.33733-0.368-0.828s-0.092-0.88933-0.092-1.196c0-0.42934 0.076666-0.874 0.23-1.334s0.322-0.69 0.506-0.69c2.6373 0 4.8147 0.076666 6.532 0.23s3.8333 0.23 6.348 0.23c1.9013 0 3.6493-0.076666 5.244-0.23s3.22-0.23 4.876-0.23c0.184 0 0.35267 0.24533 0.506 0.736s0.23 0.92 0.23 1.288z"/>
</g>
<g style="">
<path d="m160 540.61h-16v-2c0-1 0-1 1-1 1 1 1-1-1-4-3-3-3-3-4 3 0 2-1 3-3 3-2 1-3 0-4-2-1-4-3-5-6-2-2 1-4 2-9 2-4 0-8 1-9 1-2 1-2 0-3-1 0-2-1-2-4-2-1 0-5-2-7-3-7-4-10-3-10 2 0 3-1 3-4 3-2-1-3-1-2-3 1-3 0-3-5-1-4 2-7 1-6-1s0-2-2-2c-1 0-3 0-4 1-1 2-2 2-4 0-3-2-6 0-8 4l-2 4v-4c0-2-1-3-2-3s-1-3-1-18v-17l3-1c2 0 8-1 14-1 13-2 20-4 24-8 4-5 6-18 7-38 0-10 1-20 2-22s1-4 0-4 0-2 1-7l2-6-2-3c-2-2-3-2-1-10 1-6 0-8-1-10-1-3 0-10 3-15 3-4 3-5 0-6-2 0-2-1-2-5s0-5 2-6 2-2-1-3c-2-1-2-1-3-5 0-2 0-6 1-8s1-5 0-9c-1-6 0-40 1-47v-6c-1-3-1-4 1-4s3-1 3-3c0-1 1-3 2-4 3-3 3-4 3-9 0-4 0-6 1-6 2-1 2-2 0-5-1-3-1-3 1-5l2-3-3 1c-2 0-3 0-2-2 0-2 0-4-1-6s-1-3 1-4c1 0 2-1 1-4 0-2-1-5-1-8 0-4 0-5-3-7s-3-3-2-5c1-1 1-2 0-3s-1-1 0-3c2-2 2-1-3-3-1 0-2-2-2-5 0-4-1-70-1-75 0-2 1-11 1-20v-16c-2-1-19 5-23 8-6 4-10 8-14 15-1 3-4 8-6 10-1 3-2 6-3 10 0 3-2 9-3 13-2 8-3 11-3 27 0 10-1 19-1 20 0 0-1 8-2 17-1 25-2 28-6 27-1 0-3 1-4 1-3 2-4 0-4-4 0-2 0-2-1-2 0 0-2 0-2-1-2-2-3-3-4-2-2 1-3 1-5-2-2-2-3-3-4-3s-2-1-2-2 0-2-1-2c-1-1-2-2-1-5 0-2 0-6-1-9-1-4-1-7-1-9s1-11 1-20c-1-23 0-36 2-37 2 0 3-2 2-4-1 0-1-2-1-2 0-1-1-5-1-8-1-5-1-5 1-6 3-2 3-6 1-6-3-1-3-3 0-5 2-2 2-4 0-6-2-1-2-1-1-3v-3c-2-3-2-3 1-4 2 0 3-4 2-6-1-1-1-1 0-1 4 1 3-5 0-8l-3-3 3-2c2 0 4-1 4-2 0 0-7-3-8-3-2-1-2-3 0-4 2-2 2-2 0-6-1-3-1-5-1-6 1 0 1-3 1-5 0-4 0-4 2-5 2 0 78 0 91 1 3 0 5 1 6 2 0 1 1 1 1 0 2-3 12-3 14 0 1 1 1 1 2-1 1-1 2-1 3-1 1 1 8 1 16 1 15 0 22 1 25 3 1 1 5 2 8 3 4 0 9 1 10 2 3 1 3 1 4-1 1-3 4-3 6-1 1 1 7 4 7 3s0-2-1-2c-1-2 3-4 5-2 1 0 2 1 2 2s0 1 2 0 2-1 1-3 1-2 4 0c2 2 11 4 12 3 0 0 0-2-1-3 0-1 0-1 3-2 3 0 4 0 5 1 3 2 4 2 6 0 1-2 2-2 4-1 1 1 3 2 4 1 4-1 5 2 4 13 0 5-1 10-2 11 0 1 0 2 1 2 1 1 0 2-1 3-2 3-2 4 0 5 2 0 2 1 0 3-3 3-3 5-1 10 1 1 1 4 1 5s0 3 1 3c2 2 2 4-1 3-5 0-6 1-2 7l3 4-3 1c-3 2-3 3-1 8 2 6 2 6-3 7h-4l3 2c3 3 3 4 0 5l-2 1 2 1c2 1 3 1 3 5s0 5 2 6c1 0 2 1 2 3 0 3-2 3-6 1-2-1-2 1 0 2v2c-1 1-1 2 0 2 1 1 2 3 2 4s1 3 2 4c3 2 2 4-1 5-1 0-1 0-1 4 0 2 1 4 2 5 1 0 2 2 2 5 0 4-1 4-2 4-3-2-4-2-3 1 1 2 1 3-1 3h-1c2 1 2 1 3 5 0 3 0 3 3 3 3-1 3-1 2 1 0 1-1 3-1 4-1 2-2 3-4 4s-2 1-1 2c1 0 1 1 1 3-1 2 0 2 2 0 2-1 2-1 3 7 0 4 1 8 1 9 2 2 2 3 0 5-2 1-3 2-17 2-15 0-15-1-16-3-1-3-1-16-2-40-2-35-4-54-8-65-4-13-8-20-15-28-8-11-17-15-27-15h-4v154c0 85-1 156-1 159-1 3-1 5-2 5s-2 1-3 2c0 1-1 3-2 3s-2 0-3 1c0 1-2 1-3 1s-1 0-1 1 1 2 3 2c4 1 3 3-1 4-4 0-4 1-4 3 1 2 0 4-1 5-3 2-3 3 1 8 2 4 2 4 1 6-1 1-2 2-1 3s1 2 0 2c-2 1-2 2-2 3 0 2 2 3 5 1 1-2 2-2 2 0s-1 3-2 3c-1 1-1 1 0 2 1 0 1 1 0 2-2 1-2 7-1 7s2-1 2-2c2-3 3-1 4 5 1 4 1 6 3 6 1 0 2 0 2 2 0 3 1 6 4 6 1 0 2 1 2 4 3 10 12 16 28 18 12 1 12 1 13 5 0 2 1 4 1 5 1 2-2 2-4-1 0-1-1-1-2-1 0 0 0 2 1 3 1 2 1 2 0 4-2 1-2 1 0 2s2 2 2 3c-1 2-2 3-3 3-1 1-1 7 0 7l2-2c6-3 3 7-2 11l-3 2 3 1c3 2 3 3-2 4s-12 0-37-1zm265 0c-3-1-4-1-5 0h-3c-1-1-6-1-9-1-7 0-7-1-7-3s-1-2-6-2-6-1-6-3v-1c-1 2-5 4-7 4s-3-2-4-4c-2-2-3-3-4-3-2 0-8 2-9 4 0 1-2 2-4 2-4 0-5-2-2-3 2-1 2-1 0-2-1 0-3 0-5 2-5 3-6 2-5-2 1-2 0-2-1-2-4 0-9 6-9 9s-1 3-3 1c-3-2-9-2-13 0-1 1-3 2-3 1-3-5-4-21-3-35l1-7h6c8 0 12-2 23-11 8-7 11-12 15-23 2-4 4-11 7-14 2-4 4-8 4-10s2-6 3-9c2-3 5-10 6-16 2-5 5-13 8-19 5-9 8-16 14-35 2-5 5-14 8-18 2-5 5-12 6-15 4-11 9-22 12-22 2-1 4-5 2-7v-1c1 0 2-3 3-5 2-7 3-9 2-10-1-2-2-2-3-1s-2 1-3 1-2-1-1-5c1-3 0-4-1-4-2-1-4-6-4-8 0-1-2-6-5-10-2-5-5-11-5-13-1-2-3-7-5-11-2-5-5-13-8-19-2-6-8-23-14-37s-13-31-15-37-5-13-6-15l-4-8c-2-7-10-22-14-26-2-3-7-6-10-8-6-3-8-3-14-3h-8v-22-23c2-1 12-1 17 1 3 0 4 0 5-1 2-1 4-1 16 0 10 1 13 1 15 0 1-1 4-1 10-1 9 1 9 1 10 3 0 2 1 2 5 3 6 1 8 2 6 5v3c2 0 5-2 5-3s0-1 1-1 2 1 2 2 1 2 2 2c12 3 11 3 15 0 2-2 3-4 4-5 0-1 1-2 4-2 5-1 6-2 4-5-1-1-2-2-1-2 0 0 8-1 17-1l7 1 1 6c0 4 0 6-1 7s-1 2 0 3c2 1 2 28 0 29-7 0-16 2-20 4-10 4-11 16-4 34 3 6 5 11 5 13s3 9 6 16c4 9 5 14 5 15-1 1-1 2 1 4s2 4 2 5 0 4 1 6c1 4 0 6-2 4-1-2-3-2-2 0 0 2 3 5 6 6 2 0 2 1 2 2-2 1-2 4 0 4s6 4 6 6c0 1 1 4 3 7l3 5 2-3c1-1 2-5 3-8s3-7 4-8 2-2 2-3 1-4 2-6c3-3 3-5 3-8 0-2 2-6 3-8 1-3 3-8 5-12 1-4 4-13 7-20 7-16 10-25 9-34 0-10-2-15-9-18-5-2-7-3-10-2-3 0-6 0-7-1s-2-6-2-26c0-18 0-18 3-19 5-1 44-1 53 1 5 1 9 1 10 1s2 0 3 2c2 2 2 2 3 0 2-2 6-2 6 1 0 2 0 2 6 2s7 0 8 2c1 1 2 2 3 2 2 1 9-6 10-9 1-2 1-2 6-1 4 0 6 1 8 2 1 2 2 2 2 2 1 0 2 0 2 1 0 2-1 2-3 3-1 0-2 1-2 3-1 3 0 3 2 3s3 1 3 5v9c1 1 1 6 1 9v6l-10 2c-20 4-23 6-28 16-2 4-5 10-7 13s-4 8-5 11-4 8-5 11c-2 4-5 11-7 16-1 5-4 13-6 17-3 5-5 11-6 15-1 3-3 8-6 13-2 4-4 8-4 10 0 1-2 6-5 11-2 4-5 13-7 19-2 7-5 13-7 17-2 3-4 6-4 8s-1 3-3 3l-1 1c1 1 1 2 0 5-1 4-1 5 0 6 1 2 1 3 1 4s1 3 2 5c2 1 4 5 5 7 1 3 5 12 8 20 4 8 7 18 8 22 3 9 6 18 7 20 1 0 2 2 2 3s2 6 4 11c5 11 7 19 5 21-2 1-1 2 0 2 3 0 4 1 6 9 3 10 5 15 8 21 3 5 8 16 13 32 3 8 13 29 18 36 4 6 10 9 18 10 4 1 9 3 11 4l5 2v6c0 4-1 5-2 6-2 1-2 6 0 9 2 1 2 2 0 5-1 2-1 3 0 5 1 3 1 3-1 6-2 2-3 4-3 4 0 3-40 3-54 0-3-1-3 0-3 1 0 2-1 2-7 2-7 0-8 0-8-2v-4c-1-2-1-2-2-1-1 0-2 1-2 2 0 2-1 4-3 3-2 0-2-1-2-2 0-2 0-2-4-3-3 0-6 0-7 1s-2 0-1-1c0-1 1-3 1-4 1-3 1-3-1-2-1 1-2 1-3 1s-1 0-1 2-1 2-6 3h-7c-2 0-3 0-3 1-2 3-3 3-3 1 0-4-9-6-12-3-1 0-1 2-1 2 1 3 0 5-2 4 0-1-3-2-4-2-3-1-4-1-3-3 0-2 0-3-1-3-4-2-5-9-4-16 1-5 1-6 0-8-2-3-2-9 0-11 1-1 3-2 10-2 4 0 10-1 12-2 6-3 13-15 13-22s-4-19-10-32c-5-10-12-30-17-46-1-2-3-7-4-12l-3-9 2-1c2-2 2-2 0-3-1-1-2-2-2-3 0 0 0-3-1-5 0-3-1-3-3-3s-2-1-2-3-1-3-3-3c-3-2-3-3-1-4 1-1 0-1-2-1-3 0-3 0-3 2s-1 3-3 3c-1 0-2 0-2 1-3 0-3 6-3 7s0 2 1 2 1 3-1 3c-7 0-2 4-4 5-5 5 0 6 0 7 2 1 1 1-1 2-2 0-3 1-3 2-1 2 0 3 1 4 1 0 0 3-2 11-2 6-5 13-6 15 0 1-2 5-3 8s-3 9-5 12c-10 23-15 42-13 51 2 8 9 12 22 14 5 0 7 1 9 3s3 6 3 38c0 6-1 7-6 4-1 0-2 0-5 1-4 2-6 2-10 0zm836 0l-5-2v-21c0-17 0-20 1-20s2 0 3 1 2 1 2 1c0-1 5-2 11-2s11-1 12-1c2-2 12-1 13 1 0 1 1 1 3 0 1-1 4-1 6-1s3-1 2-4c0-2-1-3-2-3-5-1-2-3 3-3 9 0 10 0 10-3 0-2 0-2 2-3h-3c-6-1-6-1-4-3 1-1 0-1-1-1s-3-1-4-2c-1-2 1-6 3-7 2 0 2-1 2-2h-2c-1 0-2 0-3-1-1 0-3-1-4-2-2-1-2-2-2-22v-21h6 3c-3-1-3-1-4-4-1-2-1-2-3-2-1 1-1 0-1-3 0-2 0-4 1-4 0-1 0-2-1-4 0-3 0-3 3-6l3-3-3-1c-3-1-3-3 2-4 3-1 3-1 0-1-3-1-7-3-7-6 0-1 0-3 1-5s1-3 1-5c-2-2-2-5 0-7 1-2 1-2 0-4-1-1-1-3-1-4v-6c-1-2-1-12 0-24 1-13 1-21 0-22-1-2 0-10 2-11 1-1 1-6-1-8s-1-5 2-6c2 0 2-3-1-3-1-1-1-1-1-2 0-2 1-2 4-2h5v-5c0-4-1-5-2-4-3 1-8 2-8 1s1-3 3-5l3-4h-3-3v-9c0-6 1-9 2-10 2-1 2-2 0-3s-2-2-3-25c0-30 0-83 1-84 1-2 5-4 8-4 1 0 1-1 0-3-1-3 1-5 3-4 1 0 3 1 4 1 3 1 3 1 2-1 0-2 0-3 1-3 1-1 1-1-2-3-4-1 0-4 0-5s0-2 2-2c1 0 2-1 3-3 1-5 0-5-3-3-2 1-4 1-4 0-1-1 0-2 3-2 4-1 3-2-1-3-3-1-4-2-2-3s2-2 0-3c-2 0-2-1-3-5 0-3 0-4-2-4-6-1-6-1-6-6v-5l-4 1c-2 0-3 0-4-1-2-3-3 3-2 6 2 3-1 7-3 5-1-1-2-1-5-1-4 1-5 1-4 3 0 2 0 2-5 2-4 0-7 0-10-1-3-2-4-2-5-1-5 4-10 0-9-6v-5-17c0-13 1-15 2-16h2c1 1 2 1 3 0 2-1 13-1 14 1 0 1 0 0 1-1s2-1 4-1c1 1 4 1 5 1 2 0 4 1 4 2 1 1 2 1 2 0 1-1 2-1 2-1 1 0 2 0 4-1 3-2 84-1 106 1 20 2 34 7 54 20 8 6 10 7 13 13 2 3 6 8 8 10 3 3 3 4 3 5-2 2-1 4 3 5 1 0 2 2 3 4s2 3 3 3c0 0 1 2 1 3 0 2 0 4 2 5 1 1 2 4 2 6s0 4 1 4c0 1 1 2 1 3s1 4 2 6c1 3 3 7 3 10s1 7 2 10 1 6 1 12v9c2 2 0 29-2 36-1 3-2 7-2 9 0 3-3 8-5 13-3 5-4 9-4 10-1 4-16 25-21 29-1 1-3 2-4 2s-3 0-4 1c-1 3-4 3-4 1s-5-2-13 2c-2 1-4 2-5 2-3 1-3 3 0 3 1 0 2 0 2 1 0 2-5 6-7 10 0 1 0 2 1 3 0 0-1 1-4 3-2 1 4 2 7 0 2-3 3-3 4-1v3c1 2 5 4 8 2 3-1 4 0 1 4s-3 7-1 8c1 1 4-2 3-5-1-1 0-1 4 0 4 2 4 2 6 0 4-3 6-1 16 9 17 17 23 28 31 57 3 11 3 11 1 11-1 0-3 0-4 1l-3 1h3c4 1 5 2 6 8 0 5 0 6-1 7s-2 1-1 1 2 1 2 2 0 3 1 3c0 1 0 2-2 5-2 2-2 4-1 4s3 13 2 23c-1 7-1 7-3 5-1-1-1 0-1 6l1 6h-4-1c4 1 5 5 1 14-2 3-4 7-5 7-1 1-1 3-1 4 0 6-3 13-7 16-2 2-3 5-3 6 0 3-8 13-19 23-13 12-15 13-26 18-11 4-15 5-19 4-3-1-4-1-6 0-1 2-2 2-5 1-4-2-5-2-4 0 1 1-4 3-7 1-1 0-7-1-15 0-7 0-14 0-15-1h-4c-3 1-4 1-6 0s-3-1-5 0c-3 2-6 1-6-1 0-1-1-2-5-1-2 0-5 1-7 1-1 0-3 0-3 1 0 0-2 1-4 1-3 0-3-1-2-4l1-3-3 2c-3 3-5 2-4-1 1-2 0-3-1-2s-2 3-2 5l-1 4-5-1c-6-1-6-1-5-4 1-1 1-1 0-1s-1 0-1 1c0 2-2 3-3 3-3 2-4 1-6 0-3-2-4-6-3-8s1-2-1-2c-3 0-5 3-4 6 0 2 0 3-1 3s-2 0-2 1c-1 2-7 1-9-2-4-4-6-5-7-2-1 1-2 3-3 3s-2 0-3 2c0 1-1 2-2 0 0-1-1-1-1 0-1 2-3 2-9 0zm145-44c3-1 6-2 7-3s3-2 5-2c2-1 5-3 7-4 2-2 5-4 6-4 2 0 2-2 3-4 0-2 2-5 4-8l4-4c0-1 1-2 3-3 1 0 4-2 7-4 2-2 4-2 6-2 2 1 2 0 1-2 0-2-1-4-2-5s-2-2-1-4 1-3-1-4l-2-3 3-2c3-2 3-2 2-4-2-2-6-2-6 1v3l-2-3c-1-1-1-3-1-3-1-3 3-7 5-8 2 0 2 0-1-2-5-2-7-6-7-12 1-3 1-7 1-8v-15c0-6-1-12-2-14 0-2-1-6-1-10s0-7-1-8-1-4-1-8-1-6-2-8c-3-3-6-10-7-15 0-2-2-4-7-9-9-7-12-8-23-10-5 0-9-1-10-1-1-1-6-1-12-1l-10 1-1 13v19 5c-2 0-4 5-3 7 0 0 1 4 1 8 0 5 0 7-1 7 0 0-2 0-3 1l-3 2 2 1c3 1 4 3 2 5-1 0-1 1 0 3 1 1 1 2-1 4-1 1-3 2-4 2s-2 1-2 3c-1 2-1 10 1 11 1 1 1 1-1 2-3 1-3 1-3 7 1 5 3 10 5 10 0 0 1-2 1-3 0-4 1-3 2 1 1 2 1 4 0 6-1 3 0 4 2 3 1-1 1-1 2 4 0 3 1 7 1 10s0 4-2 4c-1 0-2 1-2 2l2 2c2 1 3 3 4 22 2 11 4 19 8 24 2 3 5 4 11 6 10 3 10 3 17 1zm-11-240c7-2 22-9 25-12 5-6 14-28 14-35 0-3 0-6 1-7 0-1 1-6 1-11s1-9 2-10c0 0 0-2-1-4v-22c0-12-1-20-2-24-1-3-2-8-2-13l-1-7 6-2c3-2 6-3 7-5l2-4-6 1c-5 1-5 1-5-2 1-2 1-3 4-3 3 1 3 0 3-2 0-1 0-3-1-4-1-2-1-3-1-4s-1-2-2-2c-3-2-10-4-9-6 0 0 0-1-1-2s-1-2 1-3c3-2-1-3-3-3-1 0-3 0-5 1s-7 0-6 1c3 1 3 4 0 3-9-2-8-2-8 0 6 4-1 4-3 2-2-4-4-4-5-1 0 2-1 3-2 3-2 1-2 0-2-1 0-2-1-2-4 0-3 3-22 2-21-1 0 0 1-1 3-1 5-1 2-2-4-2-3 0-7 0-8-1-2 0-3 0-4 2-3 3-3 3 0 4h2c-1 1-3 1-4 2l-3 1 2 1c1 0 3 1 3 2s0 3 2 3l2 1-2 1c-2 1-3 1-2 3 0 2 0 4-1 5-1 2-1 2 3 4 3 1 6 2 8 2 2-1 2 0 2 4-1 11-2 23-3 23v1c0 1 0 3-1 4l-3 2 3 2 3 2v19c0 12 0 19 1 19s1 3-2 6c-2 3-1 5 1 5 1 0 2 0 2 1l-1 1c-2 0-3 7-1 17 2 12 2 13 0 12-2 0-2 0-2 1s0 1 1 2c1 0 2 7 2 18-1 12 0 13 8 13 5 0 8 0 9 1 0 1 1 1 1 1 1-1 4-2 7-2zm461 283c-3-1-5-1-7-1-3 1-4 0-4-2v-1c-1 1-3 2-5 2s-4 1-5 1c-1 2-15 2-19 0-3-1-5-1-9 0h-7c-2 0-2 0-2 1 0 0-2 1-6 0-3 0-13-1-23-1s-19 0-19-1c0 0-1 0-2 1s-2 1-8 0-7-1-7-4v-13c1-7 1-11 0-17 0-5-1-9 0-9 0 0 2-1 5-1 2 0 5 0 5-1h3c3 0 13-5 16-8 6-5 7-12 5-23-2-13-3-19-1-21s1-3-1-3c-2-1-2-2-2-3v-2c-1 0-1-3-1-6 0-5-1-8-3-10-1 0-1-2-1-3s-1-3-2-5-2-6-2-9-1-6-1-7c-2-2-58-2-62 0-1 0-4 1-8 0-7-1-6-2-11 22 0 3-1 8-2 10-2 2-2 5-2 10 0 3-1 9-2 13s-1 8-1 9c1 1 1 5 1 8-1 8 2 18 6 21 2 2 7 4 14 5 2 0 6 1 9 2l6 2-1 14c0 8 1 16 1 18v8c-2 3-2 3-6 3-3 0-6 1-7 1-2 0-3-1-3-2-1-3 0-3-6-1-3 2-8 2-23 2-41 1-46 1-49-1-4-1-5-1-5 2-1 1-22 0-25-1l-3-2 1-20v-21l10-2c5-1 11-3 12-4 5-2 10-7 13-11 4-7 10-26 11-34 2-9 4-20 6-23 0-1 1-5 1-9 0-8 1-10 5-10 3 0 3-3 1-6-1-1-1-2-1-3s3-1 8 1c4 1 4 2 2-3 0-1 1-2 2-2 2-1 4-2 4-3s1-2 3-3l4-2h-5c-4-1-8-3-8-7 0-2 0-2 4 0 2 1 3 1 5 0 1-1 3-2 4-4 0-1 0-2-2-3l-2-2c2-1-1-2-3 0l-2 2v-4c0-4 0-4 2-5 4-1 4-2 4-6-1-2-2-3-4-4-4 0-5-1-5-3s3-2 5 0c3 1 6 0 6-3 0-1-1-3-3-6-2-4-2-7 2-6 2 0 3 0 4-2l3-2-2-1c-3-1-3-2-1-4 1-2 1-2-1-1-2 2-2 1-2-2 0-4 0-4 7-2 0 0 2 0 3-1 2-1 2-1 0-1s-2-1-2-4c1-2 0-3-2-5-1-1-2-3-2-4 0-3 0-3 3-1 3 1 3 1 4-2 1-4 1-5-1-5-1 0-2-1-3-2-2-2-2-2 1-3 1-1 3-1 4-1s1-1 1-2-7-2-9 0c-1 1-1 0-1-2s-1-4-2-5c-1-2-1-2 3-3 3-2 4-3 3-4-1 0-1-1-1-3 0-1-2-2-3-4l-2-2 2-1c2-1 2-2 1-5s0-6 2-5c1 1 2 0 2-5s-1-5-3-5-2-1-2-5c1-5 1-5 3-5 1 0 1-1 1-2-2-2-1-12 2-32 2-10 4-22 4-26 2-8 5-24 7-30 1-1 1-4 1-7-1-2 0-5 1-8 1-2 2-9 3-15 0-7 2-16 3-21 1-6 3-13 3-18 0-4 1-10 2-14 1-3 2-10 3-15 0-7 1-9 3-12 2-2 3-2 4-1 1 0 2 1 3 1s5 1 9 3c5 2 7 2 7 1 1-1 3-2 8-2l7 1 1 3c1 4 3 5 5 5 1 0 2 0 3-1s2-2 4-1c2 0 2 1 2 4 0 2 0 3 2 3 3 1 3 1 2 5 0 3 0 4 1 2 2-1 2-1 4 4 1 3 3 13 4 21s4 21 6 27c1 7 2 14 2 15s0 3 1 4 2 7 2 13c1 5 3 14 4 18 3 9 3 9 1 8-3-1-4 1-1 2 2 1 2 2 4 9 0 4 1 9 2 13 1 3 3 13 5 24 2 10 4 20 5 23 2 7 2 12-1 14-1 2-2 2-3 2v2 2l1-2 3-3c1 0 5 10 5 13 0 1 0 4 1 5 2 3 2 7-2 8-3 2-3 5-1 9v-3c0-3 1-3 3-3s2 0 4 6c1 4 2 9 2 10 0 2 1 8 2 14 3 10 4 20 2 23v2c0 1-1 2-2 3-3 1-4 3-4 5 0 1 4 0 5-1 1 0 1 0 2 1 0 0 0 1-1 2-2 2-2 2 1 5l2 3h-3-2l2 4c2 3 3 4 5 4 2-1 2 3-1 6-2 2-2 3-1 5 1 1 2 3 3 3 2 0 4 4 4 9v5c1 0 2 0 3 1s2 2 1 3c-1 2-2 3-4 3-3 0-2 1 3 3 3 1 4 2 4 4 0 1 1 6 2 10s3 11 3 16c0 4 1 9 1 10s0 2-2 3l-2 1h3c2-1 3 0 5 13 5 21 11 32 20 36 2 1 7 2 12 2 8 1 10 1 11 3s0 8-2 11c-1 2-1 2 0 3 2 0 2 9 0 13v3c1 1 1 3 1 6-1 5-1 6-4 7-4 2-12 2-16 0zm-142-195c0-1 6-1 15-1h14l-2-11c-3-16-4-28-3-33 1-2 1-4 0-4-1-2 0-3 2-3 1 0 2-2 2-3 1-2 2-3 3-3s1-1 1-3c0-3 3-9 4-10 1 0 0-2-1-4-2-3-2-5-2-12v-7l-3-1h-5c-2 0-4-1-5-2-2-1-4-3-5-4-3-2-5-10-4-12-1 0-2-2-2-4s-1-6-1-8-1-5-2-6c-1-4-5-28-6-36 0-5 0-10-1-10-1-1-3 4-4 7 0 2-1 3-2 4h-4c-2 1 5 3 5 4 1 1 0 6-1 11-2 5-3 13-3 19-1 5-2 12-4 16-1 4-2 9-1 11 0 4 0 5-2 5s-2 0 0 3v6c-1 3-2 7-2 9s-1 5-2 7c-1 4-2 5-1 7s1 4 1 6c-1 1-1 5-1 8 0 4-1 7-2 9s-1 5-1 14c0 8-1 11-2 13-1 1-2 6-2 10l-1 7h8 14c3 1 6 1 6 1h2z" fill="rgba(255, 255, 255, 1.000000)"/>
</g>
</svg>
